<svg xmlns="http://www.w3.org/2000/svg" viewBox="0 0 24 24" role="img" aria-label="Bell">
  <!-- Gradient that matches the site’s purple tones -->
  <defs>
    <linearGradient id="g" x1="0" y1="0" x2="1" y2="1">
      <stop offset="0" stop-color="#A78BFA"/>
      <stop offset="1" stop-color="#7C3AED"/>
    </linearGradient>
  </defs>

  <!-- Optional rounded tile for visibility at 16–32px -->
  <rect x="1.5" y="1.5" width="21" height="21" rx="4" fill="url(#g)"/>

  <!-- Original bell path, unchanged; thicker stroke for favicon clarity -->
  <g class="bell" fill="none" stroke="#FFFFFF" stroke-width="2.25" stroke-linecap="round" stroke-linejoin="round">
    <path d="M15 17h5l-1.405-1.405A2.032 2.032 0 0 1 18 14.158V11a6.002 6.002 0 0 0-4-5.659V5a2 2 0 1 0-4 0v.341C7.67 6.165 6 8.388 6 11v3.159c0 .538-.214 1.055-.595 1.436L4 17h5m6 0v1a3 3 0 1 1-6 0v-1m6 0H9"/>
  </g>

  <!-- Adaptive contrast for dark mode -->
  <style>
    @media (prefers-color-scheme: dark) {
      .bell { stroke: #F4F4F5; }
    }
  </style>
</svg>
